<?xml version="1.0" encoding="iso-8859-1"?>
<!-- Uploaded to: SVG Repo, www.svgrepo.com, Generator: SVG Repo Mixer Tools -->
<svg height="800px" width="800px" version="1.1" id="Layer_1" xmlns="http://www.w3.org/2000/svg" xmlns:xlink="http://www.w3.org/1999/xlink" 
	 viewBox="0 0 512 512" xml:space="preserve">
<path style="fill:#00655B;" d="M504.329,395.991c-23.154-7.931-42.835-25.362-52.966-49.466
	c19.802-27.245,30.332-58.16,30.332-90.525c0-50.993-26.106-98.404-73.508-133.498C363.17,89.175,303.742,70.821,240.848,70.821
	c-62.893,0-122.323,18.354-167.338,51.681C26.106,157.596,0,205.006,0,256s26.106,98.404,73.51,133.498
	c45.017,33.327,104.445,51.681,167.338,51.681c54.058,0,105.547-13.57,147.533-38.542c30.527,22.74,81.741,27.601,116.247,14.709
	c4.487-1.676,7.438-5.992,7.371-10.782C511.932,401.773,508.861,397.544,504.329,395.991z"/>
<path style="fill:#4AB6BF;" d="M241.738,70.829c-0.298-0.001-0.593-0.008-0.891-0.008c-62.893,0-122.323,18.354-167.338,51.681
	C26.106,157.596,0,205.006,0,256s26.106,98.404,73.51,133.498c45.017,33.327,104.445,51.681,167.338,51.681
	c0.298,0,0.594-0.007,0.891-0.007L241.738,70.829L241.738,70.829z"/>
<g>
	<path style="fill:#89E5ED;" d="M353.23,207.931H128.466c-9.744,0-17.642-7.899-17.642-17.642c0-9.744,7.899-17.642,17.642-17.642
		H353.23c9.743,0,17.642,7.899,17.642,17.642S362.973,207.931,353.23,207.931z"/>
	<path style="fill:#89E5ED;" d="M353.23,273.642H128.466c-9.744,0-17.642-7.899-17.642-17.642c0-9.744,7.899-17.642,17.642-17.642
		H353.23c9.743,0,17.642,7.899,17.642,17.642C370.872,265.744,362.973,273.642,353.23,273.642z"/>
	<path style="fill:#89E5ED;" d="M353.23,339.352H128.466c-9.744,0-17.642-7.899-17.642-17.642s7.899-17.642,17.642-17.642H353.23
		c9.743,0,17.642,7.899,17.642,17.642S362.973,339.352,353.23,339.352z"/>
</g>
<g>
	<path style="fill:#FFFFFF;" d="M241.738,172.647H128.466c-9.744,0-17.642,7.899-17.642,17.642c0,9.744,7.899,17.642,17.642,17.642
		h113.272V172.647z"/>
	<path style="fill:#FFFFFF;" d="M241.738,238.358H128.466c-9.744,0-17.642,7.899-17.642,17.642c0,9.744,7.899,17.642,17.642,17.642
		h113.272V238.358z"/>
	<path style="fill:#FFFFFF;" d="M241.738,304.068H128.466c-9.744,0-17.642,7.899-17.642,17.642s7.899,17.642,17.642,17.642h113.272
		V304.068z"/>
</g>
</svg>